<mxfile host="Electron" agent="Mozilla/5.0 (Windows NT 10.0; Win64; x64) AppleWebKit/537.36 (KHTML, like Gecko) draw.io/28.2.5 Chrome/138.0.7204.251 Electron/37.6.1 Safari/537.36" version="28.2.5">
  <diagram name="Page-1" id="xQjASvWwRrLRSbFjwTUn">
    <mxGraphModel dx="2076" dy="1231" grid="1" gridSize="10" guides="1" tooltips="1" connect="1" arrows="1" fold="1" page="1" pageScale="1" pageWidth="1169" pageHeight="1654" math="0" shadow="0">
      <root>
        <mxCell id="0" />
        <mxCell id="1" parent="0" />
        <mxCell id="s60wOimAXKAUEVSBfMwY-1" value="Lion" style="swimlane;fontStyle=1;align=center;verticalAlign=top;childLayout=stackLayout;horizontal=1;startSize=26;horizontalStack=0;resizeParent=1;resizeParentMax=0;resizeLast=0;collapsible=1;marginBottom=0;whiteSpace=wrap;html=1;" vertex="1" parent="1">
          <mxGeometry x="440" y="200" width="160" height="164" as="geometry" />
        </mxCell>
        <mxCell id="s60wOimAXKAUEVSBfMwY-2" value="~ state: String" style="text;strokeColor=none;fillColor=none;align=left;verticalAlign=top;spacingLeft=4;spacingRight=4;overflow=hidden;rotatable=0;points=[[0,0.5],[1,0.5]];portConstraint=eastwest;whiteSpace=wrap;html=1;" vertex="1" parent="s60wOimAXKAUEVSBfMwY-1">
          <mxGeometry y="26" width="160" height="26" as="geometry" />
        </mxCell>
        <mxCell id="s60wOimAXKAUEVSBfMwY-3" value="" style="line;strokeWidth=1;fillColor=none;align=left;verticalAlign=middle;spacingTop=-1;spacingLeft=3;spacingRight=3;rotatable=0;labelPosition=right;points=[];portConstraint=eastwest;strokeColor=inherit;" vertex="1" parent="s60wOimAXKAUEVSBfMwY-1">
          <mxGeometry y="52" width="160" height="8" as="geometry" />
        </mxCell>
        <mxCell id="s60wOimAXKAUEVSBfMwY-4" value="~ Lion():&amp;nbsp;" style="text;strokeColor=none;fillColor=none;align=left;verticalAlign=top;spacingLeft=4;spacingRight=4;overflow=hidden;rotatable=0;points=[[0,0.5],[1,0.5]];portConstraint=eastwest;whiteSpace=wrap;html=1;" vertex="1" parent="s60wOimAXKAUEVSBfMwY-1">
          <mxGeometry y="60" width="160" height="26" as="geometry" />
        </mxCell>
        <mxCell id="s60wOimAXKAUEVSBfMwY-5" value="~ getState(): String&amp;nbsp;" style="text;strokeColor=none;fillColor=none;align=left;verticalAlign=top;spacingLeft=4;spacingRight=4;overflow=hidden;rotatable=0;points=[[0,0.5],[1,0.5]];portConstraint=eastwest;whiteSpace=wrap;html=1;" vertex="1" parent="s60wOimAXKAUEVSBfMwY-1">
          <mxGeometry y="86" width="160" height="26" as="geometry" />
        </mxCell>
        <mxCell id="s60wOimAXKAUEVSBfMwY-6" value="~ setState(String): void&amp;nbsp;" style="text;strokeColor=none;fillColor=none;align=left;verticalAlign=top;spacingLeft=4;spacingRight=4;overflow=hidden;rotatable=0;points=[[0,0.5],[1,0.5]];portConstraint=eastwest;whiteSpace=wrap;html=1;" vertex="1" parent="s60wOimAXKAUEVSBfMwY-1">
          <mxGeometry y="112" width="160" height="26" as="geometry" />
        </mxCell>
        <mxCell id="s60wOimAXKAUEVSBfMwY-7" value="~ changeState(): void&amp;nbsp;" style="text;strokeColor=none;fillColor=none;align=left;verticalAlign=top;spacingLeft=4;spacingRight=4;overflow=hidden;rotatable=0;points=[[0,0.5],[1,0.5]];portConstraint=eastwest;whiteSpace=wrap;html=1;" vertex="1" parent="s60wOimAXKAUEVSBfMwY-1">
          <mxGeometry y="138" width="160" height="26" as="geometry" />
        </mxCell>
        <mxCell id="s60wOimAXKAUEVSBfMwY-8" value="Before State Design Pattern" style="text;html=1;align=center;verticalAlign=middle;whiteSpace=wrap;rounded=0;fillColor=#F83939;strokeColor=#b85450;" vertex="1" parent="1">
          <mxGeometry x="410" y="120" width="220" height="30" as="geometry" />
        </mxCell>
        <mxCell id="s60wOimAXKAUEVSBfMwY-9" value="After State Design Pattern" style="text;html=1;align=center;verticalAlign=middle;whiteSpace=wrap;rounded=0;fillColor=#2D742C;strokeColor=#82b366;" vertex="1" parent="1">
          <mxGeometry x="400" y="510" width="220" height="30" as="geometry" />
        </mxCell>
        <mxCell id="s60wOimAXKAUEVSBfMwY-10" value="Lion" style="swimlane;fontStyle=1;align=center;verticalAlign=top;childLayout=stackLayout;horizontal=1;startSize=26;horizontalStack=0;resizeParent=1;resizeParentMax=0;resizeLast=0;collapsible=1;marginBottom=0;whiteSpace=wrap;html=1;" vertex="1" parent="1">
          <mxGeometry x="850" y="584" width="160" height="164" as="geometry" />
        </mxCell>
        <mxCell id="s60wOimAXKAUEVSBfMwY-11" value="~ state: IState" style="text;strokeColor=none;fillColor=none;align=left;verticalAlign=top;spacingLeft=4;spacingRight=4;overflow=hidden;rotatable=0;points=[[0,0.5],[1,0.5]];portConstraint=eastwest;whiteSpace=wrap;html=1;" vertex="1" parent="s60wOimAXKAUEVSBfMwY-10">
          <mxGeometry y="26" width="160" height="26" as="geometry" />
        </mxCell>
        <mxCell id="s60wOimAXKAUEVSBfMwY-12" value="" style="line;strokeWidth=1;fillColor=none;align=left;verticalAlign=middle;spacingTop=-1;spacingLeft=3;spacingRight=3;rotatable=0;labelPosition=right;points=[];portConstraint=eastwest;strokeColor=inherit;" vertex="1" parent="s60wOimAXKAUEVSBfMwY-10">
          <mxGeometry y="52" width="160" height="8" as="geometry" />
        </mxCell>
        <mxCell id="s60wOimAXKAUEVSBfMwY-13" value="~ Lion():&amp;nbsp;" style="text;strokeColor=none;fillColor=none;align=left;verticalAlign=top;spacingLeft=4;spacingRight=4;overflow=hidden;rotatable=0;points=[[0,0.5],[1,0.5]];portConstraint=eastwest;whiteSpace=wrap;html=1;" vertex="1" parent="s60wOimAXKAUEVSBfMwY-10">
          <mxGeometry y="60" width="160" height="26" as="geometry" />
        </mxCell>
        <mxCell id="s60wOimAXKAUEVSBfMwY-14" value="~ getState(): IState" style="text;strokeColor=none;fillColor=none;align=left;verticalAlign=top;spacingLeft=4;spacingRight=4;overflow=hidden;rotatable=0;points=[[0,0.5],[1,0.5]];portConstraint=eastwest;whiteSpace=wrap;html=1;" vertex="1" parent="s60wOimAXKAUEVSBfMwY-10">
          <mxGeometry y="86" width="160" height="26" as="geometry" />
        </mxCell>
        <mxCell id="s60wOimAXKAUEVSBfMwY-15" value="~ setState(IState): void&amp;nbsp;" style="text;strokeColor=none;fillColor=none;align=left;verticalAlign=top;spacingLeft=4;spacingRight=4;overflow=hidden;rotatable=0;points=[[0,0.5],[1,0.5]];portConstraint=eastwest;whiteSpace=wrap;html=1;" vertex="1" parent="s60wOimAXKAUEVSBfMwY-10">
          <mxGeometry y="112" width="160" height="26" as="geometry" />
        </mxCell>
        <mxCell id="s60wOimAXKAUEVSBfMwY-16" value="~ changeState(): void&amp;nbsp;" style="text;strokeColor=none;fillColor=none;align=left;verticalAlign=top;spacingLeft=4;spacingRight=4;overflow=hidden;rotatable=0;points=[[0,0.5],[1,0.5]];portConstraint=eastwest;whiteSpace=wrap;html=1;" vertex="1" parent="s60wOimAXKAUEVSBfMwY-10">
          <mxGeometry y="138" width="160" height="26" as="geometry" />
        </mxCell>
        <mxCell id="s60wOimAXKAUEVSBfMwY-17" value="&amp;lt;&amp;lt;interface&amp;gt;&amp;gt;&amp;nbsp;&lt;div&gt;IState&lt;/div&gt;" style="swimlane;fontStyle=1;align=center;verticalAlign=top;childLayout=stackLayout;horizontal=1;startSize=40;horizontalStack=0;resizeParent=1;resizeParentMax=0;resizeLast=0;collapsible=1;marginBottom=0;whiteSpace=wrap;html=1;" vertex="1" parent="1">
          <mxGeometry x="425" y="620" width="160" height="66" as="geometry" />
        </mxCell>
        <mxCell id="s60wOimAXKAUEVSBfMwY-18" value="+ mood(Lion simba): void" style="text;strokeColor=none;fillColor=none;align=left;verticalAlign=top;spacingLeft=4;spacingRight=4;overflow=hidden;rotatable=0;points=[[0,0.5],[1,0.5]];portConstraint=eastwest;whiteSpace=wrap;html=1;" vertex="1" parent="s60wOimAXKAUEVSBfMwY-17">
          <mxGeometry y="40" width="160" height="26" as="geometry" />
        </mxCell>
        <mxCell id="s60wOimAXKAUEVSBfMwY-26" value="" style="endArrow=block;dashed=1;endFill=0;endSize=12;html=1;rounded=0;exitX=0.576;exitY=0.004;exitDx=0;exitDy=0;exitPerimeter=0;entryX=0.414;entryY=1.143;entryDx=0;entryDy=0;entryPerimeter=0;" edge="1" parent="1" source="s60wOimAXKAUEVSBfMwY-29" target="s60wOimAXKAUEVSBfMwY-18">
          <mxGeometry width="160" relative="1" as="geometry">
            <mxPoint x="148.48000000000002" y="747.1399999999999" as="sourcePoint" />
            <mxPoint x="330" y="710" as="targetPoint" />
          </mxGeometry>
        </mxCell>
        <mxCell id="s60wOimAXKAUEVSBfMwY-27" value="" style="endArrow=block;dashed=1;endFill=0;endSize=12;html=1;rounded=0;exitX=0.5;exitY=0;exitDx=0;exitDy=0;entryX=0.611;entryY=1.099;entryDx=0;entryDy=0;entryPerimeter=0;" edge="1" parent="1" source="s60wOimAXKAUEVSBfMwY-45" target="s60wOimAXKAUEVSBfMwY-18">
          <mxGeometry width="160" relative="1" as="geometry">
            <mxPoint x="500" y="892" as="sourcePoint" />
            <mxPoint x="261" y="690" as="targetPoint" />
          </mxGeometry>
        </mxCell>
        <mxCell id="s60wOimAXKAUEVSBfMwY-28" value="" style="endArrow=diamondThin;endFill=0;endSize=24;html=1;rounded=0;entryX=-0.004;entryY=0.187;entryDx=0;entryDy=0;entryPerimeter=0;exitX=0.996;exitY=0.381;exitDx=0;exitDy=0;exitPerimeter=0;" edge="1" parent="1" source="s60wOimAXKAUEVSBfMwY-17" target="s60wOimAXKAUEVSBfMwY-11">
          <mxGeometry width="160" relative="1" as="geometry">
            <mxPoint x="270" y="710" as="sourcePoint" />
            <mxPoint x="430" y="710" as="targetPoint" />
          </mxGeometry>
        </mxCell>
        <mxCell id="s60wOimAXKAUEVSBfMwY-29" value="Angry" style="swimlane;fontStyle=1;align=center;verticalAlign=top;childLayout=stackLayout;horizontal=1;startSize=26;horizontalStack=0;resizeParent=1;resizeParentMax=0;resizeLast=0;collapsible=1;marginBottom=0;whiteSpace=wrap;html=1;" vertex="1" parent="1">
          <mxGeometry x="160" y="880" width="160" height="138" as="geometry" />
        </mxCell>
        <mxCell id="s60wOimAXKAUEVSBfMwY-30" value="&lt;u&gt;- instance : Angry&lt;/u&gt;" style="text;strokeColor=none;fillColor=none;align=left;verticalAlign=top;spacingLeft=4;spacingRight=4;overflow=hidden;rotatable=0;points=[[0,0.5],[1,0.5]];portConstraint=eastwest;whiteSpace=wrap;html=1;" vertex="1" parent="s60wOimAXKAUEVSBfMwY-29">
          <mxGeometry y="26" width="160" height="26" as="geometry" />
        </mxCell>
        <mxCell id="s60wOimAXKAUEVSBfMwY-31" value="" style="line;strokeWidth=1;fillColor=none;align=left;verticalAlign=middle;spacingTop=-1;spacingLeft=3;spacingRight=3;rotatable=0;labelPosition=right;points=[];portConstraint=eastwest;strokeColor=inherit;" vertex="1" parent="s60wOimAXKAUEVSBfMwY-29">
          <mxGeometry y="52" width="160" height="8" as="geometry" />
        </mxCell>
        <mxCell id="s60wOimAXKAUEVSBfMwY-32" value="- Angry()" style="text;strokeColor=none;fillColor=none;align=left;verticalAlign=top;spacingLeft=4;spacingRight=4;overflow=hidden;rotatable=0;points=[[0,0.5],[1,0.5]];portConstraint=eastwest;whiteSpace=wrap;html=1;" vertex="1" parent="s60wOimAXKAUEVSBfMwY-29">
          <mxGeometry y="60" width="160" height="26" as="geometry" />
        </mxCell>
        <mxCell id="s60wOimAXKAUEVSBfMwY-33" value="+ mood(Lion simba): void" style="text;strokeColor=none;fillColor=none;align=left;verticalAlign=top;spacingLeft=4;spacingRight=4;overflow=hidden;rotatable=0;points=[[0,0.5],[1,0.5]];portConstraint=eastwest;whiteSpace=wrap;html=1;" vertex="1" parent="s60wOimAXKAUEVSBfMwY-29">
          <mxGeometry y="86" width="160" height="26" as="geometry" />
        </mxCell>
        <mxCell id="s60wOimAXKAUEVSBfMwY-34" value="&lt;u&gt;~ Instance(): Angry&lt;/u&gt;" style="text;strokeColor=none;fillColor=none;align=left;verticalAlign=top;spacingLeft=4;spacingRight=4;overflow=hidden;rotatable=0;points=[[0,0.5],[1,0.5]];portConstraint=eastwest;whiteSpace=wrap;html=1;" vertex="1" parent="s60wOimAXKAUEVSBfMwY-29">
          <mxGeometry y="112" width="160" height="26" as="geometry" />
        </mxCell>
        <mxCell id="s60wOimAXKAUEVSBfMwY-35" value="" style="endArrow=diamondThin;endFill=1;endSize=24;html=1;rounded=0;entryX=-0.01;entryY=-0.198;entryDx=0;entryDy=0;exitX=-0.01;exitY=0.297;exitDx=0;exitDy=0;entryPerimeter=0;exitPerimeter=0;" edge="1" parent="s60wOimAXKAUEVSBfMwY-29" source="s60wOimAXKAUEVSBfMwY-33" target="s60wOimAXKAUEVSBfMwY-32">
          <mxGeometry width="160" relative="1" as="geometry">
            <mxPoint x="235" y="172" as="sourcePoint" />
            <mxPoint x="325" y="132" as="targetPoint" />
            <Array as="points">
              <mxPoint x="-100" y="73" />
            </Array>
          </mxGeometry>
        </mxCell>
        <mxCell id="s60wOimAXKAUEVSBfMwY-36" value="Use" style="endArrow=open;endSize=12;dashed=1;html=1;rounded=0;exitX=1;exitY=0.5;exitDx=0;exitDy=0;entryX=0;entryY=0.5;entryDx=0;entryDy=0;" edge="1" parent="1" source="s60wOimAXKAUEVSBfMwY-18" target="s60wOimAXKAUEVSBfMwY-14">
          <mxGeometry width="160" relative="1" as="geometry">
            <mxPoint x="319" y="898" as="sourcePoint" />
            <mxPoint x="540" y="670" as="targetPoint" />
          </mxGeometry>
        </mxCell>
        <mxCell id="s60wOimAXKAUEVSBfMwY-44" value="" style="endArrow=block;dashed=1;endFill=0;endSize=12;html=1;rounded=0;exitX=0.5;exitY=0;exitDx=0;exitDy=0;entryX=0.798;entryY=0.949;entryDx=0;entryDy=0;entryPerimeter=0;" edge="1" parent="1" source="s60wOimAXKAUEVSBfMwY-52" target="s60wOimAXKAUEVSBfMwY-18">
          <mxGeometry width="160" relative="1" as="geometry">
            <mxPoint x="800" y="900" as="sourcePoint" />
            <mxPoint x="620" y="960" as="targetPoint" />
          </mxGeometry>
        </mxCell>
        <mxCell id="s60wOimAXKAUEVSBfMwY-45" value="Hungry" style="swimlane;fontStyle=1;align=center;verticalAlign=top;childLayout=stackLayout;horizontal=1;startSize=26;horizontalStack=0;resizeParent=1;resizeParentMax=0;resizeLast=0;collapsible=1;marginBottom=0;whiteSpace=wrap;html=1;" vertex="1" parent="1">
          <mxGeometry x="440" y="880" width="160" height="138" as="geometry" />
        </mxCell>
        <mxCell id="s60wOimAXKAUEVSBfMwY-46" value="&lt;u&gt;- instance : Hungry&lt;/u&gt;" style="text;strokeColor=none;fillColor=none;align=left;verticalAlign=top;spacingLeft=4;spacingRight=4;overflow=hidden;rotatable=0;points=[[0,0.5],[1,0.5]];portConstraint=eastwest;whiteSpace=wrap;html=1;" vertex="1" parent="s60wOimAXKAUEVSBfMwY-45">
          <mxGeometry y="26" width="160" height="26" as="geometry" />
        </mxCell>
        <mxCell id="s60wOimAXKAUEVSBfMwY-47" value="" style="line;strokeWidth=1;fillColor=none;align=left;verticalAlign=middle;spacingTop=-1;spacingLeft=3;spacingRight=3;rotatable=0;labelPosition=right;points=[];portConstraint=eastwest;strokeColor=inherit;" vertex="1" parent="s60wOimAXKAUEVSBfMwY-45">
          <mxGeometry y="52" width="160" height="8" as="geometry" />
        </mxCell>
        <mxCell id="s60wOimAXKAUEVSBfMwY-48" value="- Hungry()" style="text;strokeColor=none;fillColor=none;align=left;verticalAlign=top;spacingLeft=4;spacingRight=4;overflow=hidden;rotatable=0;points=[[0,0.5],[1,0.5]];portConstraint=eastwest;whiteSpace=wrap;html=1;" vertex="1" parent="s60wOimAXKAUEVSBfMwY-45">
          <mxGeometry y="60" width="160" height="26" as="geometry" />
        </mxCell>
        <mxCell id="s60wOimAXKAUEVSBfMwY-49" value="+ mood(Lion simba): void" style="text;strokeColor=none;fillColor=none;align=left;verticalAlign=top;spacingLeft=4;spacingRight=4;overflow=hidden;rotatable=0;points=[[0,0.5],[1,0.5]];portConstraint=eastwest;whiteSpace=wrap;html=1;" vertex="1" parent="s60wOimAXKAUEVSBfMwY-45">
          <mxGeometry y="86" width="160" height="26" as="geometry" />
        </mxCell>
        <mxCell id="s60wOimAXKAUEVSBfMwY-50" value="&lt;u&gt;~ Instance(): Hungry&lt;/u&gt;" style="text;strokeColor=none;fillColor=none;align=left;verticalAlign=top;spacingLeft=4;spacingRight=4;overflow=hidden;rotatable=0;points=[[0,0.5],[1,0.5]];portConstraint=eastwest;whiteSpace=wrap;html=1;" vertex="1" parent="s60wOimAXKAUEVSBfMwY-45">
          <mxGeometry y="112" width="160" height="26" as="geometry" />
        </mxCell>
        <mxCell id="s60wOimAXKAUEVSBfMwY-51" value="" style="endArrow=diamondThin;endFill=1;endSize=24;html=1;rounded=0;entryX=-0.01;entryY=-0.198;entryDx=0;entryDy=0;exitX=-0.01;exitY=0.297;exitDx=0;exitDy=0;entryPerimeter=0;exitPerimeter=0;" edge="1" parent="s60wOimAXKAUEVSBfMwY-45" source="s60wOimAXKAUEVSBfMwY-49" target="s60wOimAXKAUEVSBfMwY-48">
          <mxGeometry width="160" relative="1" as="geometry">
            <mxPoint x="235" y="172" as="sourcePoint" />
            <mxPoint x="325" y="132" as="targetPoint" />
            <Array as="points">
              <mxPoint x="-100" y="73" />
            </Array>
          </mxGeometry>
        </mxCell>
        <mxCell id="s60wOimAXKAUEVSBfMwY-52" value="NotHungry" style="swimlane;fontStyle=1;align=center;verticalAlign=top;childLayout=stackLayout;horizontal=1;startSize=26;horizontalStack=0;resizeParent=1;resizeParentMax=0;resizeLast=0;collapsible=1;marginBottom=0;whiteSpace=wrap;html=1;" vertex="1" parent="1">
          <mxGeometry x="730" y="880" width="160" height="138" as="geometry" />
        </mxCell>
        <mxCell id="s60wOimAXKAUEVSBfMwY-53" value="&lt;u&gt;- instance : NotHungry&lt;/u&gt;" style="text;strokeColor=none;fillColor=none;align=left;verticalAlign=top;spacingLeft=4;spacingRight=4;overflow=hidden;rotatable=0;points=[[0,0.5],[1,0.5]];portConstraint=eastwest;whiteSpace=wrap;html=1;" vertex="1" parent="s60wOimAXKAUEVSBfMwY-52">
          <mxGeometry y="26" width="160" height="26" as="geometry" />
        </mxCell>
        <mxCell id="s60wOimAXKAUEVSBfMwY-54" value="" style="line;strokeWidth=1;fillColor=none;align=left;verticalAlign=middle;spacingTop=-1;spacingLeft=3;spacingRight=3;rotatable=0;labelPosition=right;points=[];portConstraint=eastwest;strokeColor=inherit;" vertex="1" parent="s60wOimAXKAUEVSBfMwY-52">
          <mxGeometry y="52" width="160" height="8" as="geometry" />
        </mxCell>
        <mxCell id="s60wOimAXKAUEVSBfMwY-55" value="- NotHungry()" style="text;strokeColor=none;fillColor=none;align=left;verticalAlign=top;spacingLeft=4;spacingRight=4;overflow=hidden;rotatable=0;points=[[0,0.5],[1,0.5]];portConstraint=eastwest;whiteSpace=wrap;html=1;" vertex="1" parent="s60wOimAXKAUEVSBfMwY-52">
          <mxGeometry y="60" width="160" height="26" as="geometry" />
        </mxCell>
        <mxCell id="s60wOimAXKAUEVSBfMwY-56" value="+ mood(Lion simba): void" style="text;strokeColor=none;fillColor=none;align=left;verticalAlign=top;spacingLeft=4;spacingRight=4;overflow=hidden;rotatable=0;points=[[0,0.5],[1,0.5]];portConstraint=eastwest;whiteSpace=wrap;html=1;" vertex="1" parent="s60wOimAXKAUEVSBfMwY-52">
          <mxGeometry y="86" width="160" height="26" as="geometry" />
        </mxCell>
        <mxCell id="s60wOimAXKAUEVSBfMwY-57" value="&lt;u&gt;~ Instance(): NotHungry&lt;/u&gt;" style="text;strokeColor=none;fillColor=none;align=left;verticalAlign=top;spacingLeft=4;spacingRight=4;overflow=hidden;rotatable=0;points=[[0,0.5],[1,0.5]];portConstraint=eastwest;whiteSpace=wrap;html=1;" vertex="1" parent="s60wOimAXKAUEVSBfMwY-52">
          <mxGeometry y="112" width="160" height="26" as="geometry" />
        </mxCell>
        <mxCell id="s60wOimAXKAUEVSBfMwY-58" value="" style="endArrow=diamondThin;endFill=1;endSize=24;html=1;rounded=0;entryX=-0.01;entryY=-0.198;entryDx=0;entryDy=0;exitX=-0.01;exitY=0.297;exitDx=0;exitDy=0;entryPerimeter=0;exitPerimeter=0;" edge="1" parent="s60wOimAXKAUEVSBfMwY-52" source="s60wOimAXKAUEVSBfMwY-56" target="s60wOimAXKAUEVSBfMwY-55">
          <mxGeometry width="160" relative="1" as="geometry">
            <mxPoint x="235" y="172" as="sourcePoint" />
            <mxPoint x="325" y="132" as="targetPoint" />
            <Array as="points">
              <mxPoint x="-100" y="73" />
            </Array>
          </mxGeometry>
        </mxCell>
      </root>
    </mxGraphModel>
  </diagram>
</mxfile>
